<?xml version="1.0" encoding="utf-8"?>
<!-- Generator: Adobe Illustrator 23.0.1, SVG Export Plug-In . SVG Version: 6.00 Build 0)  -->
<svg version="1.1" id="Layer_1" xmlns="http://www.w3.org/2000/svg" xmlns:xlink="http://www.w3.org/1999/xlink" x="0px" y="0px"
	 width="70px" height="70px" viewBox="0 0 70 70" style="enable-background:new 0 0 70 70;" xml:space="preserve">
<style type="text/css">
	.st0{fill:none;stroke:#69DD76;stroke-width:1.5;stroke-linecap:round;stroke-linejoin:round;stroke-miterlimit:10;}
</style>
<g>
	<g id="Outdoors-Recreation__x2F__Camping__x2F__camping-tent-sleep">
		<g id="Group_108">
			<g id="Regular_108">
				<path id="Oval_53" class="st0" d="M31.2,44.1c1.3,0,2.3-1,2.3-2.3s-1-2.3-2.3-2.3c-1.3,0-2.3,1-2.3,2.3
					C28.8,43.3,29.9,44.1,31.2,44.1z"/>
				<path id="Shape_592" class="st0" d="M35.7,39.6H42c1.1,0,2,0.9,2,2v2.5h-8.4L35.7,39.6L35.7,39.6z"/>
				<path id="Shape_593" class="st0" d="M36.5,27.3l8.9,5.9c0.2,0.1,0.3,0.3,0.3,0.5l2.1,11.7c0,0.3,0,0.4-0.2,0.6
					c-0.2,0.2-0.3,0.3-0.6,0.3H26c-0.3,0-0.4-0.1-0.6-0.3c-0.2,0-0.2-0.3-0.2-0.6l2.1-11.7c0-0.2,0.2-0.3,0.3-0.5L36.5,27.3z"/>
				<path id="Shape_594" class="st0" d="M36.5,27.3v-3.8"/>
			</g>
		</g>
	</g>
</g>
<path id="Rectangle-path_107" class="st0" d="M16.5,17.6c0-1.5,1.2-2.6,2.6-2.6h34.7c1.5,0,2.6,1.2,2.6,2.6v34.7
	c0,1.5-1.2,2.6-2.6,2.6H19.1c-1.5,0-2.6-1.2-2.6-2.6V17.6z"/>
</svg>
