<?xml version="1.0" encoding="utf-8"?>
<!-- Generator: Adobe Illustrator 23.0.1, SVG Export Plug-In . SVG Version: 6.00 Build 0)  -->
<svg version="1.1" id="Layer_1" xmlns="http://www.w3.org/2000/svg" xmlns:xlink="http://www.w3.org/1999/xlink" x="0px" y="0px"
	 width="70px" height="70px" viewBox="0 0 70 70" style="enable-background:new 0 0 70 70;" xml:space="preserve">
<style type="text/css">
	.st0{fill:#69DD76;}
	.st1{fill:none;stroke:#000000;stroke-width:1.5;stroke-linecap:round;stroke-linejoin:round;}
	.st2{fill:none;stroke:#FFFFFF;stroke-width:1.5;stroke-linecap:round;stroke-linejoin:round;stroke-miterlimit:10;}
</style>
<rect class="st0" width="70" height="70"/>
<g id="Outdoors-Recreation__x2F__Camping__x2F__camping-tent-small">
	<g id="Group_109">
		<g id="Regular_109">
			<path id="Shape_595" class="st1" d="M216.8,1250.7h16.5"/>
			<path id="Shape_596" class="st1" d="M216.8,1253.6h12"/>
			<path id="Shape_597" class="st1" d="M213.8,1272.3h22.5"/>
			<path id="Shape_598" class="st1" d="M216.8,1272.3l7.6-12c0.1-0.2,0.4-0.3,0.6-0.3c0.3,0,0.5,0.1,0.6,0.3l7.6,12"/>
			<path id="Shape_599" class="st1" d="M222,1272.3l2.3-3.9c0.1-0.2,0.4-0.4,0.6-0.4s0.5,0.1,0.7,0.4l2.4,3.9"/>
		</g>
	</g>
</g>
<g>
	<g id="Outdoors-Recreation__x2F__Camping__x2F__camping-tent-sleep">
		<g id="Group_108">
			<g id="Regular_108">
				<path id="Oval_53" class="st2" d="M29.7,44.2c1.3,0,2.3-1,2.3-2.3c0-1.3-1-2.3-2.3-2.3s-2.3,1-2.3,2.3
					C27.3,43.4,28.4,44.2,29.7,44.2z"/>
				<path id="Shape_592" class="st2" d="M34.2,39.7h6.3c1.1,0,2,0.9,2,2v2.5h-8.4L34.2,39.7L34.2,39.7z"/>
				<path id="Shape_593" class="st2" d="M35,27.4l8.9,5.9c0.2,0.1,0.3,0.3,0.3,0.5l2.1,11.7c0,0.3,0,0.4-0.2,0.6
					c-0.2,0.2-0.3,0.3-0.6,0.3h-21c-0.3,0-0.4-0.1-0.6-0.3c-0.2,0-0.2-0.3-0.2-0.6l2.1-11.7c0-0.2,0.2-0.3,0.3-0.5L35,27.4z"/>
				<path id="Shape_594" class="st2" d="M35,27.4v-3.8"/>
			</g>
		</g>
	</g>
</g>
<path id="Rectangle-path_107" class="st2" d="M15,17.6c0-1.5,1.2-2.6,2.6-2.6h34.7c1.5,0,2.6,1.2,2.6,2.6v34.7
	c0,1.5-1.2,2.6-2.6,2.6H17.6c-1.5,0-2.6-1.2-2.6-2.6V17.6z"/>
</svg>
