<?xml version="1.0" encoding="utf-8"?>
<!-- Generator: Adobe Illustrator 23.0.1, SVG Export Plug-In . SVG Version: 6.00 Build 0)  -->
<svg version="1.1" id="Layer_1" xmlns="http://www.w3.org/2000/svg" xmlns:xlink="http://www.w3.org/1999/xlink" x="0px" y="0px"
	 width="70px" height="70px" viewBox="0 0 70 70" style="enable-background:new 0 0 70 70;" xml:space="preserve">
<style type="text/css">
	.st0{fill:none;stroke:#69DD76;stroke-width:1.5;stroke-linecap:round;stroke-linejoin:round;stroke-miterlimit:10;}
</style>
<g id="Sports__x2F__Climbing-Speleology__x2F__climbing-sports">
	<g id="Group_191">
		<g id="Regular_191">
			<path id="Oval_165" class="st0" d="M32.6,28.2c1.3,0,2.3-1,2.3-2.3s-1-2.3-2.3-2.3s-2.3,1-2.3,2.3S31.3,28.2,32.6,28.2z"/>
			<path id="Shape_974" class="st0" d="M42.5,26v-0.8c0-0.9-0.7-1.5-1.5-1.5c-0.9,0-1.5,0.7-1.5,1.5V26c0,3-2.3,5.3-5.3,5.3h-5
				c-0.5,0-1-0.3-1.3-0.8l-1.4-2.3c-0.4-0.7-1.4-0.9-2-0.5c-0.7,0.4-1,1.4-0.5,2l1.4,2.3c0.9,1.4,2.3,2.2,3.8,2.2h0.6v4.2l-2.9,5.7
				c-0.3,0.8-0.1,1.7,0.7,2c0.8,0.3,1.7,0.1,2-0.7l2.5-5.2h3.7c0.9,0,1.5,0.7,1.5,1.5v1.5c0,0.9,0.7,1.5,1.5,1.5
				c0.9,0,1.5-0.7,1.5-1.5v-1.5c0-2.5-2-4.5-4.5-4.5v-3C39.6,33.3,42.5,30,42.5,26z"/>
			<path id="Shape_975" class="st0" d="M46.2,23.8v7.6c0,3.3-2.7,6-6,6H29.6"/>
			<path id="Shape_976" class="st0" d="M34.1,43.3v3"/>
		</g>
	</g>
</g>
<path id="Rectangle-path_107" class="st0" d="M15,17.6c0-1.5,1.2-2.6,2.6-2.6h34.7c1.5,0,2.6,1.2,2.6,2.6v34.7
	c0,1.5-1.2,2.6-2.6,2.6H17.6c-1.5,0-2.6-1.2-2.6-2.6V17.6z"/>
</svg>
