<?xml version="1.0" encoding="utf-8"?>
<!-- Generator: Adobe Illustrator 23.0.1, SVG Export Plug-In . SVG Version: 6.00 Build 0)  -->
<svg version="1.1" id="Layer_1" xmlns="http://www.w3.org/2000/svg" xmlns:xlink="http://www.w3.org/1999/xlink" x="0px" y="0px"
	 width="70px" height="70px" viewBox="0 0 70 70" style="enable-background:new 0 0 70 70;" xml:space="preserve">
<style type="text/css">
	.st0{fill:#3B3B3A;}
	.st1{fill:#FFFFFF;}
</style>
<rect class="st0" width="70" height="70"/>
<g id="Interface-Essential__x2F__View__x2F__view-square">
	<g id="Group_335">
		<g id="view-square">
			<g id="Rectangle-path_95">
				<path class="st1" d="M47.2,50H22.8c-1.6,0-2.8-1.3-2.8-2.8V22.8c0-1.6,1.3-2.8,2.8-2.8h24.4c1.6,0,2.8,1.3,2.8,2.8v24.4
					C50,48.7,48.7,50,47.2,50z M22.8,21.9c-0.5,0-0.9,0.4-0.9,0.9v24.4c0,0.5,0.4,0.9,0.9,0.9h24.4c0.5,0,0.9-0.4,0.9-0.9V22.8
					c0-0.5-0.4-0.9-0.9-0.9H22.8z"/>
			</g>
			<g id="Shape_1543">
				<path class="st1" d="M35,42.5c-3.4,0-6.8-1.7-10.3-5.3c-1.2-1.3-1.2-3.2,0-4.5c0,0,0,0,0,0c7-7.1,13.6-7.1,20.7,0
					c1.2,1.3,1.2,3.2,0,4.5C41.8,40.8,38.4,42.5,35,42.5z M26,34.1c-0.5,0.5-0.5,1.3,0,1.9c6.3,6.3,11.7,6.3,18,0
					c0.5-0.5,0.5-1.3,0-1.9C37.7,27.7,32.3,27.7,26,34.1z"/>
			</g>
			<g id="Oval_203">
				<path class="st1" d="M35,38.7c-2.1,0-3.8-1.7-3.8-3.8s1.7-3.8,3.8-3.8s3.8,1.7,3.8,3.8S37.1,38.7,35,38.7z M35,33.1
					c-1,0-1.9,0.8-1.9,1.9s0.8,1.9,1.9,1.9s1.9-0.8,1.9-1.9S36,33.1,35,33.1z"/>
			</g>
		</g>
	</g>
</g>
</svg>
