<?xml version="1.0" encoding="utf-8"?>
<!-- Generator: Adobe Illustrator 23.0.1, SVG Export Plug-In . SVG Version: 6.00 Build 0)  -->
<svg version="1.1" id="Layer_1" xmlns="http://www.w3.org/2000/svg" xmlns:xlink="http://www.w3.org/1999/xlink" x="0px" y="0px"
	 width="70px" height="70px" viewBox="0 0 70 70" style="enable-background:new 0 0 70 70;" xml:space="preserve">
<style type="text/css">
	.st0{fill:#69DD76;}
	.st1{fill:none;stroke:#FFFFFF;stroke-width:1.5;stroke-linecap:round;stroke-linejoin:round;stroke-miterlimit:10;}
</style>
<rect class="st0" width="70" height="70"/>
<g id="Food-Drinks__x2F__Eating-Restaurant__x2F__restaurant-fork-knife">
	<g id="Group_5">
		<g id="Regular_5">
			<path id="Shape_29" class="st1" d="M29.7,23.7v22.6"/>
			<path id="Shape_30" class="st1" d="M32.7,23.7v6.8c0,1.7-1.4,3-3,3l0,0c-1.7,0-3-1.4-3-3v-6.8"/>
			<path id="Shape_31" class="st1" d="M38.7,38.7h3c0.4,0,0.8-0.2,1-0.4s0.4-0.7,0.4-1c-0.2-4.3-0.3-8.9-3.1-13.2
				c-0.2-0.3-0.5-0.4-0.9-0.3c-0.3,0.1-0.5,0.3-0.5,0.7v21.9"/>
		</g>
	</g>
</g>
<path id="Rectangle-path_107" class="st1" d="M15,17.6c0-1.5,1.2-2.6,2.6-2.6h34.7c1.5,0,2.6,1.2,2.6,2.6v34.7
	c0,1.5-1.2,2.6-2.6,2.6H17.6c-1.5,0-2.6-1.2-2.6-2.6V17.6z"/>
</svg>
