<?xml version="1.0" encoding="utf-8"?>
<!-- Generator: Adobe Illustrator 23.0.1, SVG Export Plug-In . SVG Version: 6.00 Build 0)  -->
<svg version="1.1" id="Layer_1" xmlns="http://www.w3.org/2000/svg" xmlns:xlink="http://www.w3.org/1999/xlink" x="0px" y="0px"
	 width="70px" height="70px" viewBox="0 0 70 70" enable-background="new 0 0 70 70" xml:space="preserve">
<rect fill="#69DD76" width="70" height="70"/>
<path id="Rectangle-path_107" fill="none" stroke="#FFFFFF" stroke-width="1.5" stroke-linecap="round" stroke-linejoin="round" stroke-miterlimit="10" d="
	M15,17.6c0-1.5,1.2-2.6,2.6-2.6h34.7c1.5,0,2.6,1.2,2.6,2.6v34.7c0,1.5-1.2,2.6-2.6,2.6H17.6c-1.5,0-2.6-1.2-2.6-2.6V17.6z"/>
<g>
	<defs>
		<path id="SVGID_1_" d="M37.8799,47h4.32c0.7953,0,1.44-0.6716,1.44-1.5v-9.082c0.0001-0.0897,0.0463-0.1724,0.1211-0.2168
			c0.0748-0.0444,0.1667-0.0438,0.2408,0.0018l1.0695,0.658c0.4565,0.2811,1.0453,0.1235,1.3152-0.352
			c0.2698-0.4755,0.1185-1.0889-0.338-1.37l-6.1305-3.774c-0.073-0.045-0.1178-0.1267-0.1181-0.215V24c0-0.5523-0.4298-1-0.96-1
			c-0.5302,0-0.96,0.4477-0.96,1v5.673c-0.0001,0.0897-0.0463,0.1724-0.1211,0.2168c-0.0748,0.0444-0.1667,0.0438-0.2408-0.0018
			l-2.0295-1.249c-0.3013-0.1856-0.6759-0.1856-0.9772,0l-10.56,6.5c-0.2953,0.1818-0.4751,0.514-0.4715,0.8713
			c0.0035,0.3573,0.1898,0.6855,0.4886,0.861c0.2988,0.1755,0.6648,0.1715,0.9601-0.0103L25.998,36.2
			c0.0746-0.0458,0.1671-0.0462,0.2421-0.0011c0.0749,0.0452,0.1207,0.1289,0.1198,0.2191V45.5c0,0.8284,0.6447,1.5,1.44,1.5h4.32
			c0.5302,0,0.96-0.4477,0.96-1v-6c0-0.2761,0.2149-0.5,0.48-0.5h2.88c0.2651,0,0.48,0.2239,0.48,0.5v6
			C36.9199,46.5523,37.3497,47,37.8799,47z"/>
	</defs>
	<use xlink:href="#SVGID_1_"  overflow="visible" fill="#FFFFFF"/>
	<clipPath id="SVGID_2_">
		<use xlink:href="#SVGID_1_"  overflow="visible"/>
	</clipPath>
	<rect x="18.4797" y="18" clip-path="url(#SVGID_2_)" fill="#FFFFFF" width="33.0405" height="34"/>
</g>
<path fill="#FFFFFF" d="M46.5199,25.75c0-0.2761-0.2149-0.5-0.48-0.5h-1.848c-0.0928,0-0.1773-0.0557-0.217-0.143
	c-0.2374-0.5214-0.741-0.8546-1.295-0.857h-1.44c-0.2651,0-0.48,0.2239-0.48,0.5v4c0,0.2761,0.2149,0.5,0.48,0.5h1.704
	c0.1141,0,0.2124,0.0836,0.2352,0.2c0.0913,0.4657,0.4845,0.8001,0.9408,0.8h1.92c0.2651,0,0.48-0.2239,0.48-0.5V25.75z"/>
</svg>
