<?xml version="1.0" encoding="utf-8"?>
<!-- Generator: Adobe Illustrator 23.0.1, SVG Export Plug-In . SVG Version: 6.00 Build 0)  -->
<svg version="1.1" id="Layer_1" xmlns="http://www.w3.org/2000/svg" xmlns:xlink="http://www.w3.org/1999/xlink" x="0px" y="0px"
	 width="70px" height="70px" viewBox="0 0 70 70" style="enable-background:new 0 0 70 70;" xml:space="preserve">
<style type="text/css">
	.st0{fill:#69DD76;}
	.st1{fill:none;stroke:#FFFFFF;stroke-width:1.5;stroke-linecap:round;stroke-linejoin:round;stroke-miterlimit:10;}
</style>
<rect class="st0" width="70" height="70"/>
<g id="Outdoors-Recreation__x2F__Outdoor-Parks__x2F__outdoors-shelter-home">
	<g id="Group_87">
		<g id="Regular_87">
			<path id="Shape_480" class="st1" d="M26.7,34.8v9.9c0,0.9,0.7,1.5,1.5,1.5h4.5v-5.3c0-0.4,0.3-0.8,0.8-0.8h3
				c0.4,0,0.8,0.3,0.8,0.8v5.4h4.5c0.9,0,1.5-0.7,1.5-1.5v-10"/>
			<path id="Shape_481" class="st1" d="M23.7,37.3l11.3-9l11.3,9"/>
			<path id="Shape_482" class="st1" d="M40.3,32.5v-8.8"/>
			<path id="Rectangle-path_14" class="st1" d="M40.3,23.7h6v4.5h-6V23.7z"/>
		</g>
	</g>
</g>
<path id="Rectangle-path_107" class="st1" d="M15,17.6c0-1.5,1.2-2.6,2.6-2.6h34.7c1.5,0,2.6,1.2,2.6,2.6v34.7
	c0,1.5-1.2,2.6-2.6,2.6H17.6c-1.5,0-2.6-1.2-2.6-2.6V17.6z"/>
</svg>
