<?xml version="1.0" encoding="utf-8"?>
<!-- Generator: Adobe Illustrator 23.0.1, SVG Export Plug-In . SVG Version: 6.00 Build 0)  -->
<svg version="1.1" id="Layer_1" xmlns="http://www.w3.org/2000/svg" xmlns:xlink="http://www.w3.org/1999/xlink" x="0px" y="0px"
	 width="70px" height="70px" viewBox="0 0 70 70" style="enable-background:new 0 0 70 70;" xml:space="preserve">
<style type="text/css">
	.st0{fill:#69DD76;}
	.st1{fill:none;stroke:#FFFFFF;stroke-width:1.5;stroke-linecap:round;stroke-linejoin:round;stroke-miterlimit:10;}
</style>
<rect class="st0" width="70" height="70"/>
<g id="Interface-Essential__x2F__Form-Validation__x2F__check-2_1_">
	<g id="Group_386_1_">
		<g id="check-2_1_">
			<path id="Rectangle-path_107_1_" class="st1" d="M15,17.6c0-1.5,1.2-2.6,2.6-2.6h34.7c1.5,0,2.6,1.2,2.6,2.6v34.7
				c0,1.5-1.2,2.6-2.6,2.6H17.6C16,55,15,53.7,15,52.3V17.6z"/>
		</g>
	</g>
</g>
<g id="Interface-Essential__x2F__Form-Validation__x2F__cursor-choose-1">
	<g id="Group_396">
		<g id="cursor-choose-1">
			<path id="Shape_1767" class="st1" d="M34.7,41.7l-5.1-5.1c-0.9-0.9-0.9-2.3,0-3.2c0.9-0.9,2.3-0.9,3.2,0l3.3,3.3l6.1-8.1
				c0.5-0.7,1.3-1,2.1-0.9c0.8,0.1,1.5,0.6,1.8,1.4c0.3,0.8,0.2,1.6-0.3,2.3l-7.7,10.2c-0.4,0.5-1,0.9-1.7,0.9
				C35.8,42.4,35.2,42.2,34.7,41.7z"/>
			<path id="Shape_1768" class="st1" d="M34.7,31.5l2.3-3c0.6-0.8,1.5-1.1,2.5-0.8"/>
			<path id="Shape_1769" class="st1" d="M31.9,42.3c-0.8,0.3-1.8,0.1-2.4-0.5l-5.1-5.1c-0.8-0.8-0.9-1.9-0.3-2.8
				c0.6-0.9,1.7-1.3,2.7-0.9"/>
		</g>
	</g>
</g>
</svg>
