<?xml version="1.0" encoding="utf-8"?>
<!-- Generator: Adobe Illustrator 23.0.1, SVG Export Plug-In . SVG Version: 6.00 Build 0)  -->
<svg version="1.1" id="Layer_1" xmlns="http://www.w3.org/2000/svg" xmlns:xlink="http://www.w3.org/1999/xlink" x="0px" y="0px"
	 width="70px" height="70px" viewBox="0 0 70 70" enable-background="new 0 0 70 70" xml:space="preserve">
<rect fill="#69DD76" width="70" height="70"/>
<path id="Rectangle-path_107" fill="none" stroke="#FFFFFF" stroke-width="1.5" stroke-linecap="round" stroke-linejoin="round" stroke-miterlimit="10" d="
	M15,17.6c0-1.5,1.2-2.6,2.6-2.6h34.7c1.5,0,2.6,1.2,2.6,2.6v34.7c0,1.5-1.2,2.6-2.6,2.6H17.6c-1.5,0-2.6-1.2-2.6-2.6V17.6z"/>
<g>
	<g>
		<defs>
			<path id="SVGID_1_" d="M40.011,30.4625c-0.1521,0-0.2961,0.0659-0.391,0.1799c-0.5342,0.5511-0.9153,1.2221-1.108,1.9521
				c0,0.795,0.6716,1.44,1.5,1.44s1.5-0.645,1.5-1.44c-0.1935-0.73-0.576-1.402-1.112-1.953
				C40.3053,30.5284,40.1623,30.4625,40.011,30.4625z"/>
		</defs>
		<use xlink:href="#SVGID_1_"  overflow="visible" fill="#FFFFFF"/>
		<clipPath id="SVGID_2_">
			<use xlink:href="#SVGID_1_"  overflow="visible"/>
		</clipPath>
		<rect x="33.512" y="25.4624" clip-path="url(#SVGID_2_)" fill="#FFFFFF" width="13" height="13.5721"/>
	</g>
	<g>
		<defs>
			<path id="SVGID_3_" d="M44.441,36.4344H25.559c-0.2867,0.0021-0.5592,0.12-0.7499,0.3251
				c-0.1907,0.2059-0.2816,0.48-0.2501,0.7529c0.5683,5.125,5.0723,9.0131,10.441,9.0131s9.8727-3.8881,10.441-9.0131
				c0.0315-0.2729-0.0594-0.547-0.2501-0.7529C45.0002,36.5544,44.7277,36.4365,44.441,36.4344z"/>
		</defs>
		<use xlink:href="#SVGID_3_"  overflow="visible" fill="#FFFFFF"/>
		<clipPath id="SVGID_4_">
			<use xlink:href="#SVGID_3_"  overflow="visible"/>
		</clipPath>
		<rect x="19.5529" y="31.4346" clip-path="url(#SVGID_4_)" fill="#FFFFFF" width="30.8942" height="20.0909"/>
	</g>
	<g>
		<defs>
			<path id="SVGID_5_" d="M34.509,34.9945h1c0.2761,0,0.5-0.215,0.5-0.48L36,26.8345c0.0022-0.7951,0.6756-1.438,1.504-1.4361
				c0.8284,0.0021,1.4982,0.6481,1.496,1.4441l0.012,1.44c0.0044,0.53,0.4557,0.956,1.008,0.952s0.9964-0.437,0.992-0.968
				L41,26.8345c0-1.2-0.6671-2.31-1.75-2.9101c-1.0829-0.5999-2.4171-0.5999-3.5,0C34.6671,24.5245,34,25.6345,34,26.8345
				l0.009,7.68c0,0.127,0.0527,0.2489,0.1464,0.339C34.2492,34.9435,34.3764,34.9945,34.509,34.9945z"/>
		</defs>
		<use xlink:href="#SVGID_5_"  overflow="visible" fill="#FFFFFF"/>
		<clipPath id="SVGID_6_">
			<use xlink:href="#SVGID_5_"  overflow="visible"/>
		</clipPath>
		<rect x="29" y="18.4745" clip-path="url(#SVGID_6_)" fill="#FFFFFF" width="17.012" height="21.52"/>
	</g>
</g>
</svg>
