<?xml version="1.0" encoding="utf-8"?>
<!-- Generator: Adobe Illustrator 23.0.1, SVG Export Plug-In . SVG Version: 6.00 Build 0)  -->
<svg version="1.1" id="Icons" xmlns="http://www.w3.org/2000/svg" xmlns:xlink="http://www.w3.org/1999/xlink" x="0px" y="0px"
	 width="40px" height="40px" viewBox="0 0 40 40" style="enable-background:new 0 0 40 40;" xml:space="preserve">
<style type="text/css">
	.st0{fill:#FFFFFF;}
</style>
<path class="st0" d="M20,0C9,0,0,9,0,20s9,20,20,20c11,0,20-9,20-20S31,0,20,0z M20,38c-7,0-13.1-4-16.1-9.9l1.6-2.6l2-1.4
	c0.1-0.1,0.2-0.2,0.3-0.3l6.9-11.5c1-0.1,2-0.2,3-0.3c0.5,0.3,1.1,0.6,1.6,0.9c1.5,0.8,3,1.7,4.3,2.7c1.4,1.1,2.6,2.5,3.3,4.2
	c1.2,2.7,2.7,4.8,4.5,6.2c0.9,0.7,1.8,1.4,2.7,2.1c0.5,0.4,0.9,0.7,1.4,1.1C32.3,34.5,26.6,38,20,38z M20,2c9.9,0,18,8.1,18,18
	c0,0.7-0.1,1.5-0.1,2.2c-1.4-1-2.4-2.5-3.3-3.9c-1.7-2.5-3.2-4.4-5.5-5.8c-4-2.3-9-3.1-15-2.1c-0.3,0-0.5,0.2-0.7,0.5l-7,11.7
	l-2,1.4C4.1,24,4,24.1,3.9,24.3L3,25.8C2.4,24,2,22,2,20C2,10.1,10.1,2,20,2z M37.5,24.3c-0.3,1.1-0.6,2.1-1.1,3.1
	c-0.4-0.3-0.7-0.6-1.1-0.9c-0.9-0.7-1.8-1.3-2.6-2c-1.5-1.3-2.8-3.1-3.9-5.5c-0.9-2-2.2-3.7-3.9-4.9c-0.9-0.7-1.9-1.3-2.8-1.8
	c2.2,0.3,4.2,1,6,2c2.1,1.2,3.4,2.8,4.9,5.2C34,21.1,35.3,23.1,37.5,24.3z"/>
</svg>
